<?xml version="1.0" standalone="no"?>
<!DOCTYPE svg PUBLIC "-//W3C//DTD SVG 20010904//EN"
 "http://www.w3.org/TR/2001/REC-SVG-20010904/DTD/svg10.dtd">
<svg version="1.0" xmlns="http://www.w3.org/2000/svg"
 width="512.000000pt" height="512.000000pt" viewBox="0 0 512.000000 512.000000"
 preserveAspectRatio="xMidYMid meet">
<metadata>
Created by potrace 1.14, written by Peter Selinger 2001-2017
</metadata>
<g transform="translate(0.000000,512.000000) scale(0.100000,-0.100000)"
fill="#000000" stroke="none">
<path d="M1755 4828 c-156 -16 -388 -90 -443 -140 -53 -50 -68 -129 -36 -191
23 -44 31 -50 114 -92 125 -63 219 -181 248 -312 l10 -42 -82 -64 c-272 -217
-499 -520 -664 -887 -128 -285 -232 -667 -277 -1015 -3 -22 -7 -53 -9 -70 -2
-16 -7 -70 -11 -120 -4 -49 -9 -108 -11 -130 -2 -22 -4 -108 -5 -191 l-1 -151
-30 -17 c-16 -10 -39 -23 -51 -29 -93 -49 -270 -228 -345 -350 -98 -158 -160
-330 -160 -444 1 -96 36 -141 140 -177 188 -66 463 7 680 183 l87 70 21 -27
c83 -107 234 -228 353 -282 238 -108 471 -74 503 73 7 31 7 161 0 194 -3 16
-8 44 -11 63 -10 58 -62 205 -101 282 -55 109 -124 207 -204 288 l-72 72 33
47 c316 447 635 745 1007 939 116 61 276 132 297 132 7 0 16 -12 19 -27 18
-80 24 -128 31 -221 6 -86 30 -140 77 -175 68 -50 151 -58 225 -20 86 44 256
322 319 522 29 89 29 90 65 96 20 4 113 8 205 9 274 4 509 -25 829 -103 302
-73 447 -46 548 101 74 109 84 239 25 358 -38 79 -152 197 -250 260 -63 40
-68 46 -83 99 -23 78 -82 215 -122 281 -19 30 -39 64 -46 75 -63 103 -225 270
-357 367 -269 197 -605 329 -955 373 -118 15 -149 17 -327 19 l-188 2 -52 50
c-87 84 -187 153 -303 210 -61 30 -120 56 -130 59 -11 2 -55 13 -98 24 -126
33 -271 43 -412 29z"/>
</g>
</svg>
